<svg xmlns="http://www.w3.org/2000/svg" viewBox="0 0 99.62 99.62"><defs><style>.cls-1{fill:#f4b223;}.cls-2{fill:#fff;}</style></defs><g id="Layer_2" data-name="Layer 2"><g id="Layer_1-2" data-name="Layer 1"><rect class="cls-1" width="99.62" height="99.62" rx="14.69"/><path class="cls-2" d="M71.08,80.62c0,3-1.6,4.46-4.36,4.46-3.11,0-4.52-1.94-4.6-4.81h2.76c.06,1.46.69,2.2,1.84,2.2s1.57-.72,1.57-2V70.81h2.79Z"/><path class="cls-2" d="M82.29,74.77h-2.8A1.66,1.66,0,0,0,77.77,73a1.42,1.42,0,0,0-1.59,1.51c0,1.08.76,1.42,2.48,2,3,1,4.07,2.26,4.07,4.38,0,2.72-2,4.28-4.7,4.28-3.22,0-4.9-1.9-5-4.58h2.81a2,2,0,0,0,2.21,2.14,1.64,1.64,0,0,0,1.86-1.6c0-1-.75-1.49-2.5-2.07-2.56-.83-4.06-2-4.06-4.32s1.68-4.22,4.46-4.22S82.17,72,82.29,74.77Z"/><polygon class="cls-2" points="33.09 37.3 13.96 37.3 33.09 9.75 33.09 37.3"/><polygon class="cls-2" points="33.09 37.3 33.09 64.84 52.21 37.3 33.09 37.3"/></g></g></svg>