<?xml version="1.0" encoding="utf-8"?>
<!-- Generator: Adobe Illustrator 23.0.1, SVG Export Plug-In . SVG Version: 6.00 Build 0)  -->
<svg version="1.1" id="Layer_1" xmlns="http://www.w3.org/2000/svg" xmlns:xlink="http://www.w3.org/1999/xlink" x="0px" y="0px"
	 viewBox="0 0 1224 792" style="enable-background:new 0 0 1224 792;" xml:space="preserve">
<style type="text/css">
	.st0{fill:#FFFFFF;}
	.st1{fill:#E01E5A;}
	.st2{fill:#36C5F0;}
	.st3{fill:#2EB67D;}
	.st4{fill:#ECB22E;}
</style>
<g>
	<g>
		<path class="st0" d="M429.51,449.44l12.58-29.34c13.77,10.18,31.74,15.57,49.7,15.57c13.17,0,21.56-5.09,21.56-12.87
			c-0.3-21.56-79.34-4.79-79.94-58.98c-0.3-27.54,24.25-48.8,58.99-48.8c20.66,0,41.32,5.09,55.99,16.77l-11.75,29.97
			c-13.5-8.66-30.17-14.7-46.03-14.7c-10.78,0-17.97,5.09-17.97,11.68c0.3,21.26,79.94,9.58,80.84,61.38
			c0,28.14-23.96,47.9-58.09,47.9C470.23,468,447.18,462.01,429.51,449.44"/>
		<path class="st0" d="M915.13,409.47c-6.27,11.08-18.16,18.56-31.8,18.56c-20.17,0-36.53-16.35-36.53-36.53
			s16.35-36.53,36.53-36.53c13.64,0,25.53,7.48,31.8,18.56l34.96-19.37C937,330.8,912.01,315,883.33,315
			c-42.25,0-76.5,34.25-76.5,76.5c0,42.25,34.25,76.5,76.5,76.5c28.69,0,53.67-15.8,66.76-39.16L915.13,409.47z"/>
		<rect x="571.09" y="251.32" class="st0" width="43.72" height="213.68"/>
		<polygon class="st0" points="967.1,251.32 967.1,465.01 1010.82,465.01 1010.82,400.98 1062.62,465.01 1118.49,465.01 
			1052.62,388.95 1113.7,317.99 1060.22,317.99 1010.82,376.98 1010.82,251.32 		"/>
		<path class="st0" d="M744.42,409.76c-6.29,10.48-19.46,18.26-34.13,18.26c-20.17,0-36.53-16.35-36.53-36.53
			s16.36-36.53,36.53-36.53c14.67,0,27.84,8.08,34.13,18.86V409.76z M744.42,317.99v17.37C737.23,323.38,719.57,315,701,315
			c-38.33,0-68.57,33.83-68.57,76.35c0,42.52,30.24,76.65,68.57,76.65c18.56,0,36.23-8.38,43.41-20.36V465h43.71V317.99H744.42z"/>
	</g>
	<g>
		<path class="st1" d="M159.51,409.5c0,14.91-12.09,27-27,27s-27-12.09-27-27s12.09-27,27-27h27V409.5z"/>
		<path class="st1" d="M173.01,409.5c0-14.91,12.09-27,27-27s27,12.09,27,27V477c0,14.91-12.09,27-27,27s-27-12.09-27-27V409.5z"/>
	</g>
	<g>
		<path class="st2" d="M200.01,301.5c-14.91,0-27-12.09-27-27s12.09-27,27-27s27,12.09,27,27v27H200.01z"/>
		<path class="st2" d="M200.01,315c14.91,0,27,12.09,27,27s-12.09,27-27,27h-67.5c-14.91,0-27-12.09-27-27s12.09-27,27-27H200.01z"
			/>
	</g>
	<g>
		<path class="st3" d="M308.01,342c0-14.91,12.09-27,27-27s27,12.09,27,27s-12.09,27-27,27h-27V342z"/>
		<path class="st3" d="M294.51,342c0,14.91-12.09,27-27,27s-27-12.09-27-27v-67.5c0-14.91,12.09-27,27-27s27,12.09,27,27V342z"/>
	</g>
	<g>
		<path class="st4" d="M267.51,450c14.91,0,27,12.09,27,27s-12.09,27-27,27s-27-12.09-27-27v-27H267.51z"/>
		<path class="st4" d="M267.51,436.5c-14.91,0-27-12.09-27-27s12.09-27,27-27h67.5c14.91,0,27,12.09,27,27s-12.09,27-27,27H267.51z"
			/>
	</g>
</g>
</svg>
